<svg version="1.1" id="Layer_1" xmlns="http://www.w3.org/2000/svg" xmlns:xlink="http://www.w3.org/1999/xlink" x="0px" y="0px" viewBox="0 0 32 32" style="enable-background:new 0 0 32 32;" xml:space="preserve"><style type="text/css">.st0{fill:#7C98B6;}</style><path class="st0" d="M27.7,7.2H13.2c-0.6,0-1.2,0.6-1.2,1.2s0.5,1.2,1.2,1.2h14.5c0.6,0,1.2-0.6,1.2-1.2S28.3,7.2,27.7,7.2zM13.2,13.6h8.1c0.6,0,1.2-0.6,1.2-1.2c0-0.6-0.6-1.2-1.2-1.2h-8.1c-0.6,0-1.2,0.6-1.2,1.2C11.9,13,12.5,13.6,13.2,13.6z M21.2,24.8c0.6,0,1.2-0.6,1.2-1.2s-0.6-1.2-1.2-1.2h-8c-0.6,0-1.2,0.6-1.2,1.2s0.6,1.2,1.2,1.2H21.2z M27.7,18.4H13.2c-0.6,0-1.2,0.6-1.2,1.2s0.6,1.2,1.2,1.2h14.5c0.6,0,1.2-0.6,1.2-1.2S28.3,18.4,27.7,18.4z M9.5,10.4c0,1.8-1.4,3.2-3.2,3.2s-3.2-1.4-3.2-3.2s1.4-3.2,3.2-3.2S9.5,8.6,9.5,10.4z M9.5,21.6c0,1.8-1.4,3.2-3.2,3.2s-3.2-1.4-3.2-3.2s1.4-3.2,3.2-3.2S9.5,19.8,9.5,21.6z"/></svg>
