<svg width="15" height="15" xmlns="http://www.w3.org/2000/svg" xmlns:xlink="http://www.w3.org/1999/xlink"><defs><path id="a" d="M0 7.367V.734h13.6v13.265H0z"/></defs><g fill="none" fill-rule="evenodd"><g transform="translate(.5 .266)"><mask id="b" fill="#fff"><use xlink:href="#a"/></mask><path d="M6.8 12.3c-2.8 0-5-2.2-5-5s2.2-5 5-5 5 2.2 5 5-2.2 5-5 5M13 6.1l-.3-.6c-.1-.2-.1-.5-.1-.7 0-.5-.1-1-.3-1.4-.3-.4-.7-.6-1.2-.8l-.6-.3c-.2-.1-.3-.3-.4-.5-.2-.4-.6-.8-1.1-1-.5-.1-1-.1-1.4.1-.5.2-.9.2-1.4 0-.5-.1-1-.1-1.5 0-.5.2-.9.6-1.1 1-.1.2-.3.4-.4.5-.2.1-.5.2-.7.3-.4.1-.9.3-1.2.7-.3.4-.4.9-.3 1.4 0 .2 0 .5-.1.7l-.3.6c-.4.3-.6.8-.6 1.3s.2 1 .6 1.3l.3.6c.1.2.1.5.1.7 0 .5.1 1 .3 1.4.3.4.8.6 1.2.7l.6.3c.2.1.3.3.4.5.2.4.6.8 1.1 1 .5.1 1 .1 1.4-.1.5-.2.9-.2 1.4 0 .3.1.7.2 1 .2.1 0 .3 0 .4-.1.5-.2.9-.6 1.1-1 .1-.2.3-.4.4-.5l.6-.3c.5-.1.9-.4 1.2-.7.3-.4.4-.9.3-1.4 0-.2 0-.5.1-.7.3-.2.4-.4.5-.6.3-.4.5-.9.6-1.3 0-.5-.2-1-.6-1.3" fill="#3F5D75" mask="url(#b)"/></g><path d="M7.3 3.666a4 4 0 110 8 4 4 0 010-8" fill="#3F5D75"/></g></svg>