<svg version="1.1" id="Layer_1" xmlns="http://www.w3.org/2000/svg" xmlns:xlink="http://www.w3.org/1999/xlink" x="0px" y="0px" viewBox="0 0 32 32" style="enable-background:new 0 0 32 32;" xml:space="preserve"><style type="text/css">.st0{fill:#7C98B6;}</style><path class="st0" d="M28,10.7l-6.3-0.6c0.3-0.1,0.5-0.3,0.8-0.6c1-1,1.3-2.3,1-3.6c-0.5-1.4-2-2.1-3.4-1.7c-0.1,0-0.3,0.1-0.4,0.2c-1.3,0.6-2.8,2.7-3.3,4.1c-0.2,0-0.4,0-0.6,0c-0.1-1.7-1.2-3.2-2.8-3.7c-1.7-0.7-3.7-0.1-4.3,1.5c-0.4,1.2,0,2.6,1,3.6c0.1,0.1,0.2,0.2,0.3,0.3l-6.2,0.6c-0.3,0-0.5,0.3-0.5,0.6v3.1c0,0.3,0.2,0.5,0.5,0.6L5,15h0.2v0.1V25c0,0.6,0.4,1.1,1,1.2l2.2,0.4V11.3c1.2-0.3,2.4-0.4,3.6-0.4c0.8,0.2,1.6,0.2,2.5,0.1c0.1,0,0,0.1,0.1,0.2c0.1,0.1,0.3,0.3,0.3,0.3l-3.1,0.4l-0.1,15.3l4.2,0.7c0.1,0,0.3,0,0.4,0l3.9-0.6V11.7l-3.1-0.3c0,0,0.5-0.3,0.5-0.4c0.6,0,1.2,0,1.7-0.1c0.2,0,4.1,0.6,4.1,0.6l-0.1,15.3l2.4-0.4c0.6-0.1,1-0.6,1-1.2v-10v-0.1l1.4-0.1c0.3,0,0.5-0.3,0.5-0.6v-3.2C28.6,11,28.3,10.7,28,10.7z M13.7,10.1c-1-0.1-1.9-0.4-2.7-1.1c-0.7-0.6-0.8-1.5-0.2-2.2l0,0c0.8-0.5,1.7-0.5,2.5,0.1c0.7,0.6,1.2,1.2,1.5,2.1C15,9.9,14.5,10.1,13.7,10.1z M18.6,10.1c-0.9,0-1.3-0.3-1.2-1.1c0.3-0.9,0.8-1.6,1.4-2.2c0.8-0.6,1.8-0.6,2.6,0c0.6,0.7,0.5,1.7-0.2,2.4l0,0C20.5,9.9,19.6,10.1,18.6,10.1z"/></svg>
