<?xml version="1.0" encoding="utf-8"?>
<!-- Generator: Adobe Illustrator 25.2.1, SVG Export Plug-In . SVG Version: 6.00 Build 0)  -->
<svg version="1.1" id="Layer_1" xmlns="http://www.w3.org/2000/svg" xmlns:xlink="http://www.w3.org/1999/xlink" x="0px" y="0px"
	 viewBox="0 0 32 32" style="enable-background:new 0 0 32 32;" xml:space="preserve">
<style type="text/css">
	.st0{fill:#7C98B6;}
</style>
<path class="st0" d="M25.9,11.1c0-0.1-0.1-0.2-0.1-0.3l0,0l0,0c-0.1-0.1-0.1-0.2-0.2-0.2L19,3.9c-0.1-0.1-0.2-0.2-0.2-0.2l0,0h-0.1
	c-0.1-0.1-0.2-0.1-0.2-0.1l0,0H9.8c-2.1,0-3.7,1.7-3.7,3.7v17.8c0,2,1.5,3.3,3.7,3.3h12.5c2.2,0,3.7-1.4,3.7-3.3V11.4v-0.1
	C25.9,11.4,25.9,11.3,25.9,11.1L25.9,11.1L25.9,11.1z M23.4,25c0,0.7-0.7,0.9-1.2,0.9H9.8c-0.6,0-1.2-0.2-1.2-0.9V7.3
	c0-0.7,0.5-1.2,1.2-1.2h7.1v4.6c0,1.1,1,2.1,2.1,2.1h4.5V25z"/>
</svg>
