<svg version="1.1" id="Layer_1" xmlns="http://www.w3.org/2000/svg" xmlns:xlink="http://www.w3.org/1999/xlink" x="0px" y="0px" viewBox="0 0 32 32" style="enable-background:new 0 0 32 32;" xml:space="preserve"><style type="text/css">.st0{fill:#7C98B6;}</style><g><path class="st0" d="M24.5,9.2H13.1c-2,0-3.6,1.6-3.6,3.6v12c0,2,1.6,3.6,3.6,3.6h11.4c2,0,3.6-1.6,3.6-3.6v-12C28.1,10.8,26.5,9.2,24.5,9.2z M25.7,24.8c0,0.6-0.6,1.2-1.2,1.2H13.1c-0.6,0-1.2-0.6-1.2-1.2v-12c0-0.6,0.6-1.2,1.2-1.2h11.4c0.6,0,1.2,0.6,1.2,1.2L25.7,24.8L25.7,24.8z"/><circle class="st0" cx="15.1" cy="14.8" r="1.6"/><path class="st0" d="M16.2,20.3L16.2,20.3L16.2,20.3z"/><path class="st0" d="M23.5,18L23.5,18c-0.1-0.1-0.2-0.1-0.3-0.1c-0.2,0-0.5,0.1-0.6,0.3l0,0l-3.5,4.1c-0.1,0.1-0.2,0.1-0.2,0.1c-0.1,0-0.1,0-0.2,0l-1.8-1.9c-0.2-0.1-0.3-0.2-0.6-0.2c-0.1,0-0.1,0-0.2,0c-0.2,0-0.4,0.2-0.6,0.3l0,0l-2,2.3c-0.1,0.2-0.2,0.3-0.2,0.6c0,0.5,0.4,0.9,0.9,0.9h8.8c0.5,0,0.9-0.4,0.9-0.9v-4.7l0,0C24.1,18.4,23.9,18.2,23.5,18z"/><path class="st0" d="M6.7,20.4c-0.2,0-0.4-0.2-0.4-0.4V6.4C6.3,6.2,6.5,6,6.7,6h12.8c0.2,0,0.4,0.2,0.4,0.4c0,0.6,0.6,1.2,1.2,1.2s1.2-0.6,1.2-1.2c0-1.5-1.3-2.8-2.8-2.8H6.7c-1.6,0-2.8,1.3-2.8,2.8V20c0,1.5,1.3,2.8,2.8,2.8c0.6,0,1.2-0.6,1.2-1.2S7.4,20.4,6.7,20.4z"/></g></svg>
