<svg width="12" height="15" viewBox="0 0 12 15" version="1.1" xmlns="http://www.w3.org/2000/svg" xmlns:xlink="http://www.w3.org/1999/xlink"><title>notification</title><g id="Page-1" stroke="none" stroke-width="1" fill="none" fill-rule="evenodd"><g id="notification" fill="#3F5D75" fill-rule="nonzero"><path d="M11.72,10.76 L9.93,9.18 L9.93,4.77 C9.93,2.60504378 8.17495622,0.85 6.01,0.85 C3.84504378,0.85 2.09,2.60504378 2.09,4.77 L2.09,9.18 L0.31,10.76 C0.200076552,10.8511107 0.137527129,10.9872477 0.139929344,11.13 C0.139929344,11.4061424 0.363857625,11.63 0.64,11.63 L11.39,11.63 C11.5954288,11.6274277 11.7783766,11.4994568 11.8512385,11.3073663 C11.9241003,11.1152759 11.8720453,10.8981659 11.72,10.76 Z" id="Path"></path><path d="M7.47,12.63 C7.47,13.4584271 6.79842712,14.13 5.97,14.13 C5.14157288,14.13 4.47,13.4584271 4.47,12.63 L7.47,12.63 Z" id="Path"></path></g></g></svg>