<svg width="23" height="24" xmlns="http://www.w3.org/2000/svg"><path d="M12.19 7.724c.184.092.367.276.551.368.276.184.46.552.46.92 0 .367-.184.735-.46 1.011-.092.184-.275.276-.551.276zm-1.104-3.862v1.84c-.184-.093-.276-.185-.46-.277-.183-.092-.275-.368-.275-.643 0-.276.092-.552.367-.736.092-.092.184-.184.368-.184zM18.718 0H4.19A3.297 3.297 0 00.88 3.31v17.38C.88 22.529 2.35 24 4.19 24h14.62c1.84 0 3.31-1.471 3.31-3.31V3.31C22.03 1.471 20.558 0 18.719 0zM9.615 8.828c.184.46.368.92.736 1.287.275.184.551.276.827.276V7.264c-.644-.184-1.195-.551-1.655-.92-.46-.367-.644-.919-.644-1.47 0-.276.092-.552.184-.736.092-.276.276-.46.46-.644s.46-.368.736-.46c.275-.183.643-.275 1.011-.367v-.92c0-.184.184-.368.368-.276h.46c.184 0 .368.092.368.276v.92c.46.092.92.184 1.287.46.46.275.736.643 1.011 1.01.092.553-.735 1.104-1.47.553-.277-.276-.553-.552-.92-.736v2.299c.367.184.643.276.92.46l.827.551c.46.46.827 1.104.735 1.747 0 .644-.276 1.288-.735 1.748-.46.551-1.104.827-1.84 1.011v.736c0 .184-.183.368-.367.276h-.46c-.184 0-.368-.092-.368-.276v-.736a4.852 4.852 0 01-2.023-.736 2.841 2.841 0 01-1.011-1.839c-.092-.643 1.195-1.011 1.563-.367zm8.46 12.23H5.2c-.552 0-.92-.368-.92-.92s.368-.92.92-.92h12.874c.551 0 .92.368.92.92 0 .46-.369.92-.92.92zm0-4.414H5.2c-.552 0-.92-.368-.92-.92s.368-.92.92-.92h12.874c.551 0 .92.368.92.92s-.369.92-.92.92z" fill="#7C98B6" fill-rule="evenodd"/></svg>
