<svg version="1.1" id="Layer_1" xmlns="http://www.w3.org/2000/svg" xmlns:xlink="http://www.w3.org/1999/xlink" x="0px" y="0px" viewBox="0 0 32 32" style="enable-background:new 0 0 32 32;" xml:space="preserve"><style type="text/css">.st0{fill:#7C98B6;}</style><path class="st0" d="M7.3,26.6h17.4c1.8,0,3.2-1.4,3.2-3.2v-9.2c0-1.8-1.4-3.2-3.2-3.2h-8.8c-0.2,0-0.3-0.2-0.4-0.3l0,0l-1-3c-0.4-1.3-1.6-2.2-3-2.2H8.6c-1.4,0-2.6,0.9-3,2.2l0,0l-1.4,4c-0.1,0.3-0.2,0.6-0.2,1v10.7C4.1,25.1,5.5,26.6,7.3,26.6L7.3,26.6L7.3,26.6L7.3,26.6z"/></svg>
