<svg width="14" height="14" xmlns="http://www.w3.org/2000/svg"><g fill="#3F5D75" fill-rule="evenodd"><path d="M6.99 10.745c2.067 0 3.753-1.591 3.943-3.61L3.914 9.261c.731.896 1.83 1.482 3.075 1.482M6.99 2.78c-2.069 0-3.755 1.591-3.945 3.61l7.02-2.127c-.732-.897-1.83-1.483-3.076-1.483"/><path d="M6.99 11.715a4.959 4.959 0 01-4.953-4.953A4.959 4.959 0 016.99 1.81a4.959 4.959 0 014.953 4.953 4.959 4.959 0 01-4.953 4.953m6.234-6.298c-.144-.207-.282-.403-.337-.57-.058-.184-.064-.432-.07-.694-.009-.454-.02-.968-.326-1.388-.308-.424-.796-.592-1.226-.742-.246-.085-.478-.166-.63-.277-.149-.108-.295-.302-.45-.508-.276-.365-.589-.78-1.093-.944-.489-.157-.974-.01-1.405.118-.51.155-.883.155-1.394 0-.43-.129-.918-.277-1.405-.118-.505.163-.818.58-1.094.945-.155.205-.3.4-.449.507-.15.111-.383.191-.629.277-.43.15-.919.318-1.227.741-.306.421-.317.935-.327 1.39-.006.261-.01.51-.07.691-.055.17-.192.365-.337.572C.49 5.795.19 6.223.19 6.762c0 .54.3.968.565 1.346.145.207.282.402.337.571.06.182.064.431.07.693.01.454.02.968.326 1.387.31.424.796.593 1.227.743.246.085.478.166.63.276.148.108.294.303.45.508.275.366.588.781 1.092.945.49.158.975.011 1.406-.119.511-.154.883-.154 1.394 0 .297.09.621.187.954.187.15 0 .3-.019.451-.068.504-.163.818-.579 1.093-.946.156-.205.301-.399.45-.507.151-.11.383-.19.63-.276.43-.149.917-.318 1.226-.742.306-.42.316-.934.326-1.388.006-.262.012-.51.07-.693.055-.168.193-.364.337-.57.265-.379.566-.807.566-1.347 0-.539-.3-.967-.566-1.345"/></g></svg>